<svg class="MuiSvgIcon-root MuiSvgIcon-fontSizeMedium css-1p4ey5s" focusable="false" aria-hidden="true" viewBox="0 0 24 24" xmlns="http://www.w3.org/2000/svg" xmlns:xlink="http://www.w3.org/1999/xlink"><g filter="url(#roo-_r_2h_-1)"><path fill="var(--roo-icon-duo-lower, currentColor)" d="M17.486 5a.62.62 0 0 0-.578.396l-2.467 6.377a2.37 2.37 0 0 1-2.21 1.495H5.796c-.94 0-1.771.6-2.069 1.491l-.613 1.838a2.16 2.16 0 0 0 .3 1.966 2.16 2.16 0 0 0 1.77.906h7.755c1.472 0 2.926-.849 3.47-2.047l4.548-11.575A.62.62 0 0 0 20.38 5zM8.805 6.2c-1.88 0-3.404.556-3.404 1.24 0 .612 1.215 1.119 2.812 1.22l.052.004q.263.016.54.017c1.88 0 3.404-.555 3.404-1.24S10.685 6.2 8.805 6.2M5.29 9.099v.656c0 1.221 1.768 1.86 3.514 1.86s3.514-.639 3.514-1.86v-.646c-1.022.623-2.586.812-3.553.812-1.178 0-2.568-.228-3.475-.822"></path><path fill="url(#roo-_r_2h_-0)" d="M17.486 5a.62.62 0 0 0-.578.396l-2.467 6.377a2.37 2.37 0 0 1-2.21 1.495H5.796c-.94 0-1.771.6-2.069 1.491l-.613 1.838a2.16 2.16 0 0 0 .3 1.966 2.16 2.16 0 0 0 1.77.906h7.755c1.472 0 2.926-.849 3.47-2.047l4.548-11.575A.62.62 0 0 0 20.38 5zM8.805 6.2c-1.88 0-3.404.556-3.404 1.24 0 .612 1.215 1.119 2.812 1.22l.052.004q.263.016.54.017c1.88 0 3.404-.555 3.404-1.24S10.685 6.2 8.805 6.2M5.29 9.099v.656c0 1.221 1.768 1.86 3.514 1.86s3.514-.639 3.514-1.86v-.646c-1.022.623-2.586.812-3.553.812-1.178 0-2.568-.228-3.475-.822"></path><path stroke="var(--roo-icon-duo-stroke, transparent)" stroke-linejoin="round" d="M20.38 4.5c.37 0 .716.182.925.488l.07.12c.146.284.166.62.048.921v.001l-4.548 11.575-.01.024c-.639 1.405-2.292 2.34-3.926 2.34H5.184a2.66 2.66 0 0 1-2.175-1.114 2.66 2.66 0 0 1-.37-2.416l.614-1.838.076-.202a2.68 2.68 0 0 1 2.468-1.631h6.434c.29 0 .58-.069.84-.199l.15-.084c.34-.21.606-.524.756-.898l2.464-6.371a1.12 1.12 0 0 1 1.045-.716zM5.053 8.658a.5.5 0 0 1 .511.022c.787.515 2.06.74 3.202.74.938 0 2.39-.188 3.293-.738a.5.5 0 0 1 .76.426v.646c0 .896-.656 1.493-1.388 1.84-.745.352-1.702.52-2.626.52s-1.88-.168-2.625-.52c-.733-.347-1.389-.944-1.389-1.84v-.656a.5.5 0 0 1 .262-.44ZM8.805 5.7c.982 0 1.894.145 2.578.394.34.124.65.283.885.485.232.2.44.49.441.861 0 .372-.208.662-.441.863-.235.202-.545.36-.885.484-.684.25-1.596.394-2.578.394q-.295 0-.57-.018H8.23l-.019-.002-.03-.002c-.835-.053-1.598-.213-2.17-.458a2.5 2.5 0 0 1-.743-.468c-.2-.194-.367-.462-.367-.793 0-.37.209-.66.442-.86.234-.203.545-.362.885-.486.683-.25 1.595-.394 2.578-.394Z" fill="none"></path></g><defs><linearGradient id="roo-_r_2h_-0" x1="3" x2="17.368" y1="6.218" y2="22.391" gradientUnits="userSpaceOnUse"><stop offset="0.474" stop-color="var(--roo-icon-duo-upper, currentColor)"></stop><stop offset="0.474" stop-color="var(--roo-icon-duo-upper, currentColor)" stop-opacity="0"></stop></linearGradient><filter id="roo-_r_2h_-1" width="20" height="17.469" x="2" y="4" color-interpolation-filters="sRGB" filterUnits="userSpaceOnUse"><feFlood flood-opacity="0" result="r0"></feFlood><feColorMatrix in="SourceAlpha" result="r1" values="0 0 0 0 0 0 0 0 0 0 0 0 0 0 0 0 0 0 127 0"></feColorMatrix><feOffset dy="1"></feOffset><feComposite in2="r1" operator="out" result="r2"></feComposite><feFlood flood-color="var(--roo-icon-duo-stroke, transparent)" result="r3"></feFlood><feComposite in="r3" in2="r2" operator="in"></feComposite><feBlend in2="r0" result="r4"></feBlend><feBlend in="SourceGraphic" in2="r4" result="r5"></feBlend></filter></defs></svg>